<?xml version="1.0" encoding="UTF-8"?>
<svg version="1.1" xmlns="http://www.w3.org/2000/svg" width="5000" height="5000">
<path d="M0 0 C1.7197977 -0.00591558 3.4395863 -0.01534268 5.1593478 -0.02797198 C9.91156537 -0.05260219 14.6624211 -0.02706326 19.41453754 0.00625309 C24.57422381 0.03366051 29.73376799 0.01477315 34.89348143 0.00163317 C43.94501711 -0.01498301 52.99613284 -0.00176265 62.04761982 0.03073883 C75.50684954 0.07893343 88.96581335 0.08143332 102.42511362 0.07440292 C125.06345229 0.06388044 147.70158494 0.09060743 170.33985615 0.13854218 C192.76211528 0.18590618 215.18429765 0.21673972 237.60660648 0.22536469 C238.65075478 0.22577763 238.65075478 0.22577763 239.71599699 0.22619891 C246.07369707 0.22870447 252.43139721 0.231006 258.78909746 0.23306271 C274.59431562 0.23817818 290.39953198 0.24585294 306.20474815 0.25526428 C306.92451874 0.25569082 307.64428932 0.25611736 308.38587113 0.25655683 C343.40688463 0.27753393 378.42784745 0.32799641 413.44882488 0.380867 C425.60336551 0.39920013 437.75790631 0.41740296 449.91244793 0.43506622 C450.6662638 0.43616182 451.42007967 0.43725741 452.19673844 0.4383862 C487.23338599 0.48912975 522.27004223 0.51894063 557.30671688 0.54334458 C559.58105257 0.5449291 561.85538825 0.54652264 564.12972393 0.54811802 C579.20174254 0.55867618 594.27376138 0.56887339 609.3457804 0.57882889 C639.33589349 0.59864141 669.32600492 0.62057489 699.31611543 0.64396527 C700.744354 0.64507919 702.17259257 0.64619162 703.60083115 0.64730257 C789.87013718 0.71442324 876.13938739 0.82606233 988.6893034 0.98438263 C987.89809879 2.4203708 987.10544369 3.85555984 986.31218243 5.2904129 C985.87092935 6.08971977 985.42967627 6.88902664 984.97505188 7.71255493 C983.38148109 10.52828314 981.63941403 13.21173174 979.82602215 15.89063263 C979.11220379 16.95136993 978.39838543 18.01210724 977.66293621 19.1049881 C977.29059856 19.65523651 976.91826092 20.20548492 976.53464031 20.77240753 C974.52368415 23.74580286 972.52562528 26.72781546 970.52914715 29.71094513 C969.91887173 30.62277054 969.91887173 30.62277054 969.29626751 31.55301666 C965.25919 37.60113804 961.33992133 43.72250637 957.4393034 49.85938263 C952.15802339 58.16028636 946.7926641 66.39320997 941.31357098 74.5647049 C936.03544636 82.44338946 930.82577665 90.36586047 925.6268034 98.29688263 C925.18238903 98.97474823 924.73797466 99.65261383 924.28009319 100.35102081 C922.45827129 103.13002665 920.63666741 105.90917515 918.81544781 108.68857574 C915.6596378 113.50471928 912.50152326 118.31934346 909.34164715 123.13282013 C908.90479092 123.79829361 908.46793468 124.46376709 908.01784039 125.14940643 C907.13873021 126.48855639 906.25961544 127.82770333 905.38049603 129.16684723 C898.31129885 139.93578051 891.24761888 150.70831441 884.1893034 161.48438263 C874.91699663 175.64059463 865.63267173 189.78890354 856.34652996 203.93604279 C852.39715929 209.95286317 848.44849981 215.97015027 844.49978924 221.98740387 C842.31299 225.3197494 840.12614434 228.65206447 837.9393034 231.98438263 C837.06430318 233.31771582 836.18930318 234.65104915 835.3143034 235.98438263 C792.0018034 301.98438263 748.6893034 367.98438263 704.0643034 435.98438263 C703.414631 436.97435997 703.414631 436.97435997 702.75183392 437.98433685 C701.87673308 439.31782336 701.00163135 440.65130928 700.12652874 441.98479462 C697.94056425 445.31577965 695.75461516 448.64677478 693.56869793 451.97779083 C689.61288911 458.00582815 685.65696494 464.03378961 681.70047283 470.06137848 C672.85820776 483.53230484 664.01840339 497.00482306 655.1893034 510.48438263 C645.91699663 524.64059463 636.63267173 538.78890354 627.34652996 552.93604279 C623.39715929 558.95286317 619.44849981 564.97015027 615.49978924 570.98740387 C613.31299 574.3197494 611.12614434 577.65206447 608.9393034 580.98438263 C608.06430318 582.31771582 607.18930318 583.65104915 606.3143034 584.98438263 C569.5643034 640.98438263 532.8143034 696.98438263 496.0643034 752.98438263 C495.414631 753.97435997 495.414631 753.97435997 494.75183392 754.98433685 C493.87673308 756.31782336 493.00163135 757.65130928 492.12652874 758.98479462 C489.94056425 762.31577965 487.75461516 765.64677478 485.56869793 768.97779083 C481.61288911 775.00582815 477.65696494 781.03378961 473.70047283 787.06137848 C464.85820776 800.53230484 456.01840339 814.00482306 447.1893034 827.48438263 C437.91699663 841.64059463 428.63267173 855.78890354 419.34652996 869.93604279 C415.39715929 875.95286317 411.44849981 881.97015027 407.49978924 887.98740387 C405.31299 891.3197494 403.12614434 894.65206447 400.9393034 897.98438263 C400.06430318 899.31771582 399.18930318 900.65104915 398.3143034 901.98438263 C355.0018034 967.98438263 311.6893034 1033.98438263 267.0643034 1101.98438263 C266.63118847 1102.64436752 266.19807354 1103.30435242 265.75183392 1103.98433685 C264.87673308 1105.31782336 264.00163135 1106.65130928 263.12652874 1107.98479462 C260.94056425 1111.31577965 258.75461516 1114.64677478 256.56869793 1117.97779083 C252.61288911 1124.00582815 248.65696494 1130.03378961 244.70047283 1136.06137848 C235.85820776 1149.53230484 227.01840339 1163.00482306 218.1893034 1176.48438263 C208.91699663 1190.64059463 199.63267173 1204.78890354 190.34652996 1218.93604279 C186.39715929 1224.95286317 182.44849981 1230.97015027 178.49978924 1236.98740387 C176.31299 1240.3197494 174.12614434 1243.65206447 171.9393034 1246.98438263 C171.06430318 1248.31771582 170.18930318 1249.65104915 169.3143034 1250.98438263 C126.0018034 1316.98438263 82.6893034 1382.98438263 38.0643034 1450.98438263 C37.63118847 1451.64436752 37.19807354 1452.30435242 36.75183392 1452.98433685 C35.87673308 1454.31782336 35.00163135 1455.65130928 34.12652874 1456.98479462 C31.94056425 1460.31577965 29.75461516 1463.64677478 27.56869793 1466.97779083 C23.61288911 1473.00582815 19.65696494 1479.03378961 15.70047283 1485.06137848 C6.85820776 1498.53230484 -1.98159661 1512.00482306 -10.8106966 1525.48438263 C-20.08300337 1539.64059463 -29.36732827 1553.78890354 -38.65347004 1567.93604279 C-42.60284071 1573.95286317 -46.55150019 1579.97015027 -50.50021076 1585.98740387 C-52.68701 1589.3197494 -54.87385566 1592.65206447 -57.0606966 1595.98438263 C-57.93569682 1597.31771582 -58.81069682 1598.65104915 -59.6856966 1599.98438263 C-64.93569663 1607.98438267 -64.93569663 1607.98438267 -66.24818134 1609.98435211 C-67.12324109 1611.31778134 -67.99829196 1612.6512164 -68.87333393 1613.98465729 C-71.05984692 1617.31657134 -73.24651392 1620.64838412 -75.43349934 1623.9799881 C-79.38285254 1629.99667169 -83.33118323 1636.0140111 -87.27351093 1642.03530121 C-88.59586431 1644.05471263 -89.91893547 1646.07365238 -91.24209309 1648.09253693 C-92.98264053 1650.74846282 -94.7200316 1653.40641624 -96.45547199 1656.06568146 C-100.94183643 1662.92849408 -105.49472219 1669.73646786 -110.1466341 1676.48828888 C-111.55862225 1678.5519396 -112.96927331 1680.61649772 -114.37951374 1682.68134308 C-115.28511601 1683.99840284 -116.19741155 1685.31088766 -117.11663532 1686.61847687 C-118.38387752 1688.42117967 -119.62836453 1690.23772613 -120.86929035 1692.05860138 C-121.58399494 1693.08558136 -122.29869953 1694.11256134 -123.03506184 1695.17066193 C-124.62037245 1697.89829258 -124.62037245 1697.89829258 -123.66470051 1700.63526154 C-121.950556 1703.61271114 -121.950556 1703.61271114 -120.08804035 1706.49610138 C-119.64129963 1707.15714874 -119.19455891 1707.81819611 -118.73428059 1708.49927521 C-118.24387287 1709.21623566 -117.75346516 1709.93319611 -117.2481966 1710.67188263 C-116.15327902 1712.29349072 -115.05960121 1713.91593637 -113.9669466 1715.53907013 C-113.37655598 1716.41531036 -112.78616535 1717.2915506 -112.1778841 1718.19434357 C-108.82688178 1723.20156827 -105.53986957 1728.25054021 -102.2481966 1733.29688263 C-101.15754378 1734.96742437 -100.06688992 1736.63796545 -98.97614765 1738.30844879 C-98.22950469 1739.4519774 -97.48293349 1740.59555287 -96.73643208 1741.73917389 C-92.47717726 1748.26342654 -88.20657558 1754.78023596 -83.9356966 1761.29688263 C-83.13678003 1762.5160349 -82.33787055 1763.73519182 -81.53896809 1764.95435333 C-79.93200375 1767.40661634 -78.32498102 1769.85884107 -76.71792316 1772.31104279 C-72.35320431 1778.97127226 -67.98958128 1785.63221978 -63.62576008 1792.29303741 C-62.44001664 1794.10291741 -61.25426582 1795.91279258 -60.0685091 1797.72266388 C-59.67703693 1798.32018463 -59.28556477 1798.91770538 -58.8822298 1799.53333282 C-56.48734531 1803.18866989 -54.09220207 1806.84383729 -51.69686604 1810.49887848 C-43.03084523 1823.72237483 -34.37006599 1836.94925211 -25.71987629 1850.1831131 C-18.06142502 1861.89823357 -10.3897176 1873.6046583 -2.71792316 1885.31104279 C0.85649459 1890.76533281 4.43012824 1896.22013655 8.00381756 1901.67490387 C9.98228039 1904.69475138 11.9607945 1907.7145653 13.9393034 1910.73438263 C14.73097031 1911.9427158 15.52263698 1913.15104914 16.3143034 1914.35938263 C16.7061784 1914.95750763 17.0980534 1915.55563263 17.5018034 1916.17188263 C21.06430268 1921.60938153 21.06430268 1921.60938153 22.25177288 1923.42183685 C23.04354029 1924.63032342 23.83530868 1925.83880934 24.62707806 1927.04729462 C26.60471139 1930.06577824 28.58232774 1933.084273 30.55990887 1936.10279083 C34.14068982 1941.56834614 37.72159893 1947.03381727 41.30313396 1952.49887848 C49.96915477 1965.72237483 58.62993401 1978.94925211 67.28012371 1992.1831131 C74.93857498 2003.89823357 82.6102824 2015.6046583 90.28207684 2027.31104279 C93.85649459 2032.76533281 97.43012824 2038.22013655 101.00381756 2043.67490387 C102.98228039 2046.69475138 104.9607945 2049.7145653 106.9393034 2052.73438263 C107.73097031 2053.9427158 108.52263698 2055.15104914 109.3143034 2056.35938263 C109.7061784 2056.95750763 110.0980534 2057.55563263 110.5018034 2058.17188263 C114.06430343 2063.60938268 114.06430343 2063.60938268 115.25177288 2065.42183685 C116.04354029 2066.63032342 116.83530868 2067.83880934 117.62707806 2069.04729462 C119.60471139 2072.06577824 121.58232774 2075.084273 123.55990887 2078.10279083 C127.14068982 2083.56834614 130.72159893 2089.03381727 134.30313396 2094.49887848 C142.96915477 2107.72237483 151.62993401 2120.94925211 160.28012371 2134.1831131 C167.93857498 2145.89823357 175.6102824 2157.6046583 183.28207684 2169.31104279 C186.85649459 2174.76533281 190.43012824 2180.22013655 194.00381756 2185.67490387 C195.98228039 2188.69475138 197.9607945 2191.7145653 199.9393034 2194.73438263 C200.73097031 2195.9427158 201.52263698 2197.15104914 202.3143034 2198.35938263 C202.7061784 2198.95750763 203.0980534 2199.55563263 203.5018034 2200.17188263 C207.06430219 2205.60938078 207.06430219 2205.60938078 208.25177288 2207.42183685 C209.04354029 2208.63032342 209.83530868 2209.83880934 210.62707806 2211.04729462 C212.60471139 2214.06577824 214.58232774 2217.084273 216.55990887 2220.10279083 C220.14068982 2225.56834614 223.72159893 2231.03381727 227.30313396 2236.49887848 C235.96915477 2249.72237483 244.62993401 2262.94925211 253.28012371 2276.1831131 C260.93857498 2287.89823357 268.6102824 2299.6046583 276.28207684 2311.31104279 C279.85649459 2316.76533281 283.43012824 2322.22013655 287.00381756 2327.67490387 C288.98228039 2330.69475138 290.9607945 2333.7145653 292.9393034 2336.73438263 C293.73097031 2337.9427158 294.52263698 2339.15104914 295.3143034 2340.35938263 C295.7061784 2340.95750763 296.0980534 2341.55563263 296.5018034 2342.17188263 C300.06430314 2347.60938224 300.06430314 2347.60938224 301.25177288 2349.42183685 C302.04354029 2350.63032342 302.83530868 2351.83880934 303.62707806 2353.04729462 C305.60471139 2356.06577824 307.58232774 2359.084273 309.55990887 2362.10279083 C313.14068982 2367.56834614 316.72159893 2373.03381727 320.30313396 2378.49887848 C328.96915477 2391.72237483 337.62993401 2404.94925211 346.28012371 2418.1831131 C353.93857498 2429.89823357 361.6102824 2441.6046583 369.28207684 2453.31104279 C372.85649459 2458.76533281 376.43012824 2464.22013655 380.00381756 2469.67490387 C381.98228039 2472.69475138 383.9607945 2475.7145653 385.9393034 2478.73438263 C386.73097031 2479.9427158 387.52263698 2481.15104914 388.3143034 2482.35938263 C388.7061784 2482.95750763 389.0980534 2483.55563263 389.5018034 2484.17188263 C393.06430423 2489.6093839 393.06430423 2489.6093839 394.25177288 2491.42183685 C395.04354029 2492.63032342 395.83530868 2493.83880934 396.62707806 2495.04729462 C398.60471139 2498.06577824 400.58232774 2501.084273 402.55990887 2504.10279083 C406.14068982 2509.56834614 409.72159893 2515.03381727 413.30313396 2520.49887848 C421.96915477 2533.72237483 430.62993401 2546.94925211 439.28012371 2560.1831131 C446.93857498 2571.89823357 454.6102824 2583.6046583 462.28207684 2595.31104279 C465.85649459 2600.76533281 469.43012824 2606.22013655 473.00381756 2611.67490387 C474.98228039 2614.69475138 476.9607945 2617.7145653 478.9393034 2620.73438263 C479.73097031 2621.9427158 480.52263698 2623.15104914 481.3143034 2624.35938263 C481.7061784 2624.95750763 482.0980534 2625.55563263 482.5018034 2626.17188263 C486.06430245 2631.60938119 486.06430245 2631.60938119 487.25177288 2633.42183685 C488.04354029 2634.63032342 488.83530868 2635.83880934 489.62707806 2637.04729462 C491.60471139 2640.06577824 493.58232774 2643.084273 495.55990887 2646.10279083 C499.14068982 2651.56834614 502.72159893 2657.03381727 506.30313396 2662.49887848 C514.96915477 2675.72237483 523.62993401 2688.94925211 532.28012371 2702.1831131 C539.93857498 2713.89823357 547.6102824 2725.6046583 555.28207684 2737.31104279 C558.85649459 2742.76533281 562.43012824 2748.22013655 566.00381756 2753.67490387 C567.98228039 2756.69475138 569.9607945 2759.7145653 571.9393034 2762.73438263 C572.73097031 2763.9427158 573.52263698 2765.15104914 574.3143034 2766.35938263 C574.7061784 2766.95750763 575.0980534 2767.55563263 575.5018034 2768.17188263 C579.06430423 2773.6093839 579.06430423 2773.6093839 580.25177288 2775.42183685 C581.04354029 2776.63032342 581.83530868 2777.83880934 582.62707806 2779.04729462 C584.60471139 2782.06577824 586.58232774 2785.084273 588.55990887 2788.10279083 C592.14068982 2793.56834614 595.72159893 2799.03381727 599.30313396 2804.49887848 C607.96915477 2817.72237483 616.62993401 2830.94925211 625.28012371 2844.1831131 C632.93857498 2855.89823357 640.6102824 2867.6046583 648.28207684 2879.31104279 C652.64679569 2885.97127226 657.01041872 2892.63221978 661.37423992 2899.29303741 C662.55998336 2901.10291741 663.74573418 2902.91279258 664.9314909 2904.72266388 C665.32296307 2905.32018463 665.71443523 2905.91770538 666.1177702 2906.53333282 C668.51265469 2910.18866989 670.90779793 2913.84383729 673.30313396 2917.49887848 C681.96915477 2930.72237483 690.62993401 2943.94925211 699.28012371 2957.1831131 C706.93857498 2968.89823357 714.6102824 2980.6046583 722.28207684 2992.31104279 C725.85649459 2997.76533281 729.43012824 3003.22013655 733.00381756 3008.67490387 C734.98228039 3011.69475138 736.9607945 3014.7145653 738.9393034 3017.73438263 C739.73097031 3018.9427158 740.52263698 3020.15104914 741.3143034 3021.35938263 C741.7061784 3021.95750763 742.0980534 3022.55563263 742.5018034 3023.17188263 C746.06430314 3028.60938224 746.06430314 3028.60938224 747.25177288 3030.42183685 C748.04354029 3031.63032342 748.83530868 3032.83880934 749.62707806 3034.04729462 C751.60471139 3037.06577824 753.58232774 3040.084273 755.55990887 3043.10279083 C759.14068982 3048.56834614 762.72159893 3054.03381727 766.30313396 3059.49887848 C774.96915477 3072.72237483 783.62993401 3085.94925211 792.28012371 3099.1831131 C799.93857498 3110.89823357 807.6102824 3122.6046583 815.28207684 3134.31104279 C818.85649459 3139.76533281 822.43012824 3145.22013655 826.00381756 3150.67490387 C827.98228039 3153.69475138 829.9607945 3156.7145653 831.9393034 3159.73438263 C832.73097031 3160.9427158 833.52263698 3162.15104914 834.3143034 3163.35938263 C834.7061784 3163.95750763 835.0980534 3164.55563263 835.5018034 3165.17188263 C839.06430298 3170.609382 839.06430298 3170.609382 840.25177288 3172.42183685 C841.04354029 3173.63032342 841.83530868 3174.83880934 842.62707806 3176.04729462 C844.60471139 3179.06577824 846.58232774 3182.084273 848.55990887 3185.10279083 C852.14068982 3190.56834614 855.72159893 3196.03381727 859.30313396 3201.49887848 C867.96915477 3214.72237483 876.62993401 3227.94925211 885.28012371 3241.1831131 C892.93857498 3252.89823357 900.6102824 3264.6046583 908.28207684 3276.31104279 C911.85649459 3281.76533281 915.43012824 3287.22013655 919.00381756 3292.67490387 C920.98228039 3295.69475138 922.9607945 3298.7145653 924.9393034 3301.73438263 C925.73097031 3302.9427158 926.52263698 3304.15104914 927.3143034 3305.35938263 C927.7061784 3305.95750763 928.0980534 3306.55563263 928.5018034 3307.17188263 C932.06430248 3312.60938123 932.06430248 3312.60938123 933.25177288 3314.42183685 C934.04354029 3315.63032342 934.83530868 3316.83880934 935.62707806 3318.04729462 C937.60471139 3321.06577824 939.58232774 3324.084273 941.55990887 3327.10279083 C945.14068982 3332.56834614 948.72159893 3338.03381727 952.30313396 3343.49887848 C960.96915477 3356.72237483 969.62993401 3369.94925211 978.28012371 3383.1831131 C985.93857498 3394.89823357 993.6102824 3406.6046583 1001.28207684 3418.31104279 C1003.67069113 3421.95588679 1006.05894831 3425.60096468 1008.4471159 3429.24610138 C1008.83917721 3429.84448318 1009.23123852 3430.44286499 1009.63518047 3431.05937958 C1011.6007865 3434.05944064 1013.56610302 3437.05969065 1015.53085613 3440.06031036 C1019.22761781 3445.70542837 1022.92724151 3451.34861196 1026.63629436 3456.98566437 C1028.38109271 3459.63778347 1030.12436642 3462.29090305 1031.86752605 3464.94409943 C1032.69602987 3466.20420265 1033.52527401 3467.46381947 1034.35531902 3468.72290802 C1035.5089126 3470.47288682 1036.65990287 3472.22455274 1037.81039715 3473.97657013 C1038.4645158 3474.97027618 1039.11863445 3475.96398224 1039.79257488 3476.9878006 C1041.86815767 3480.26694889 1043.77284204 3483.6100317 1045.6893034 3486.98438263 C958.05316118 3487.48814218 870.41671641 3487.97859557 759.42372417 3488.3393631 C757.99697943 3488.34382552 756.57023469 3488.34828797 755.14348995 3488.35275045 C725.19354171 3488.44628311 695.24357723 3488.53321727 665.29358801 3488.61253233 C650.24796999 3488.65238393 635.20235565 3488.69350303 620.15674437 3488.73582076 C617.88721802 3488.74219674 615.61769157 3488.74853652 613.34816511 3488.7548748 C578.41434971 3488.85275597 543.48089127 3488.97776437 508.54751873 3489.18164825 C507.79683134 3489.18602902 507.04614396 3489.19040978 506.27270847 3489.19492329 C494.16995622 3489.26571625 482.06721775 3489.33879287 469.96448095 3489.41217272 C435.09059685 3489.623581 400.21698838 3489.81800821 365.34252739 3489.90085602 C364.62485424 3489.90256914 363.90718109 3489.90428226 363.16776027 3489.9060473 C347.41031615 3489.94335809 331.65286864 3489.97199047 315.89539396 3489.99241408 C309.55441461 3490.00078557 303.21343726 3490.01040547 296.87246037 3490.02045441 C295.83149396 3490.02205891 295.83149396 3490.02205891 294.76949793 3490.02369583 C272.43575029 3490.05874056 250.10404758 3490.19526584 227.77112455 3490.3854133 C204.63315743 3490.58193504 181.49736916 3490.66477048 158.35836194 3490.61642671 C145.02248858 3490.59210004 131.69401818 3490.6568016 118.35948347 3490.84990401 C109.4438063 3490.97018269 100.53295761 3490.9734537 91.61694287 3490.88300066 C86.53763967 3490.83478148 81.47228049 3490.83607462 76.39449445 3490.98064446 C47.8817962 3491.74542066 47.8817962 3491.74542066 39.83978782 3485.56240052 C32.125305 3478.19835125 27.35271373 3468.59665154 22.77910187 3459.10638213 C19.80826822 3453.0519893 16.00262263 3447.5417433 12.20701977 3441.98266758 C10.22331498 3439.05621989 8.29963911 3436.09050707 6.3689909 3433.12891388 C5.59027392 3431.93945694 4.81133264 3430.75014679 4.03207684 3429.56104279 C3.64612347 3428.97180023 3.2601701 3428.38255768 2.86252117 3427.77545929 C-0.29849558 3422.94973686 -3.46017255 3418.12444694 -6.62173176 3413.2990799 C-7.80844541 3411.48781858 -8.99512383 3409.67653419 -10.18179035 3407.865242 C-13.76240271 3402.39992701 -17.34315296 3396.93470258 -20.92452717 3391.46988678 C-29.59054797 3378.24639043 -38.25132721 3365.01951315 -46.90151691 3351.78565216 C-54.55996819 3340.07053169 -62.23167561 3328.36410696 -69.90347004 3316.65772247 C-73.4778878 3311.20343245 -77.05152145 3305.74862871 -80.62521076 3300.29386139 C-82.60367359 3297.27401388 -84.5821877 3294.25419996 -86.5606966 3291.23438263 C-87.35236351 3290.02604946 -88.14403018 3288.81771612 -88.9356966 3287.60938263 C-89.3275716 3287.01125763 -89.7194466 3286.41313263 -90.1231966 3285.79688263 C-93.68569669 3280.35938249 -93.68569669 3280.35938249 -94.87316608 3278.54692841 C-95.66493349 3277.33844184 -96.45670189 3276.12995592 -97.24847126 3274.92147064 C-99.2261046 3271.90298701 -101.20372094 3268.88449226 -103.18130207 3265.86597443 C-106.76208302 3260.40041911 -110.34299214 3254.93494799 -113.92452717 3249.46988678 C-122.59054797 3236.24639043 -131.25132721 3223.01951315 -139.90151691 3209.78565216 C-147.55996819 3198.07053169 -155.23167561 3186.36410696 -162.90347004 3174.65772247 C-166.4778878 3169.20343245 -170.05152145 3163.74862871 -173.62521076 3158.29386139 C-175.60367359 3155.27401388 -177.5821877 3152.25419996 -179.5606966 3149.23438263 C-180.35236351 3148.02604946 -181.14403018 3146.81771612 -181.9356966 3145.60938263 C-182.3275716 3145.01125763 -182.7194466 3144.41313263 -183.1231966 3143.79688263 C-186.68569757 3138.35938116 -186.68569757 3138.35938116 -187.87316608 3136.54692841 C-188.66493349 3135.33844184 -189.45670189 3134.12995592 -190.24847126 3132.92147064 C-192.2261046 3129.90298701 -194.20372094 3126.88449226 -196.18130207 3123.86597443 C-199.76208302 3118.40041911 -203.34299214 3112.93494799 -206.92452717 3107.46988678 C-215.59054797 3094.24639043 -224.25132721 3081.01951315 -232.90151691 3067.78565216 C-240.55996819 3056.07053169 -248.23167561 3044.36410696 -255.90347004 3032.65772247 C-260.26818889 3025.997493 -264.63181192 3019.33654548 -268.99563313 3012.67572784 C-270.18137657 3010.86584784 -271.36712739 3009.05597268 -272.5528841 3007.24610138 C-272.94435627 3006.64858063 -273.33582844 3006.05105988 -273.7391634 3005.43543243 C-276.1340479 3001.78009536 -278.52919113 2998.12492797 -280.92452717 2994.46988678 C-289.59054797 2981.24639043 -298.25132721 2968.01951315 -306.90151691 2954.78565216 C-314.55996819 2943.07053169 -322.23167561 2931.36410696 -329.90347004 2919.65772247 C-333.4778878 2914.20343245 -337.05152145 2908.74862871 -340.62521076 2903.29386139 C-342.60367359 2900.27401388 -344.5821877 2897.25419996 -346.5606966 2894.23438263 C-347.35236351 2893.02604946 -348.14403018 2891.81771612 -348.9356966 2890.60938263 C-349.3275716 2890.01125763 -349.7194466 2889.41313263 -350.1231966 2888.79688263 C-353.68569621 2883.35938322 -353.68569621 2883.35938322 -354.87316608 2881.54692841 C-355.66493349 2880.33844184 -356.45670189 2879.12995592 -357.24847126 2877.92147064 C-359.2261046 2874.90298701 -361.20372094 2871.88449226 -363.18130207 2868.86597443 C-366.76208302 2863.40041911 -370.34299214 2857.93494799 -373.92452717 2852.46988678 C-382.59054797 2839.24639043 -391.25132721 2826.01951315 -399.90151691 2812.78565216 C-407.55996819 2801.07053169 -415.23167561 2789.36410696 -422.90347004 2777.65772247 C-426.4778878 2772.20343245 -430.05152145 2766.74862871 -433.62521076 2761.29386139 C-435.60367359 2758.27401388 -437.5821877 2755.25419996 -439.5606966 2752.23438263 C-440.35236351 2751.02604946 -441.14403018 2749.81771612 -441.9356966 2748.60938263 C-442.3275716 2748.01125763 -442.7194466 2747.41313263 -443.1231966 2746.79688263 C-446.68569753 2741.35938122 -446.68569753 2741.35938122 -447.87316608 2739.54692841 C-448.66493349 2738.33844184 -449.45670189 2737.12995592 -450.24847126 2735.92147064 C-452.2261046 2732.90298701 -454.20372094 2729.88449226 -456.18130207 2726.86597443 C-459.76208302 2721.40041911 -463.34299214 2715.93494799 -466.92452717 2710.46988678 C-475.59054797 2697.24639043 -484.25132721 2684.01951315 -492.90151691 2670.78565216 C-500.55996819 2659.07053169 -508.23167561 2647.36410696 -515.90347004 2635.65772247 C-520.26818889 2628.997493 -524.63181192 2622.33654548 -528.99563313 2615.67572784 C-530.18137657 2613.86584784 -531.36712739 2612.05597268 -532.5528841 2610.24610138 C-532.94435627 2609.64858063 -533.33582844 2609.05105988 -533.7391634 2608.43543243 C-536.1340479 2604.78009536 -538.52919113 2601.12492797 -540.92452717 2597.46988678 C-549.59054797 2584.24639043 -558.25132721 2571.01951315 -566.90151691 2557.78565216 C-572.95395408 2548.52724886 -579.01377774 2539.27369994 -585.0775423 2530.02271271 C-585.87792329 2528.80160703 -586.67829762 2527.58049699 -587.47866535 2526.35938263 C-587.87618504 2525.75289383 -588.27370472 2525.14640503 -588.68327045 2524.52153778 C-591.51630344 2520.19847907 -594.34572443 2515.87306931 -597.17397785 2511.54688263 C-607.14052172 2496.30586472 -617.17749953 2481.11529538 -627.3106966 2465.98438263 C-632.84989568 2473.41804255 -637.99513471 2481.01745701 -642.9356966 2488.85938263 C-647.91851864 2496.70632822 -652.94442229 2504.51523523 -658.1231966 2512.23438263 C-663.6329645 2520.45107865 -669.08149449 2528.7061813 -674.4981966 2536.98438263 C-674.89932667 2537.59732178 -675.30045673 2538.21026093 -675.71374226 2538.84177399 C-677.76432149 2541.97539589 -679.81429256 2545.10941498 -681.86391926 2548.24365997 C-685.41094565 2553.66725042 -688.96235118 2559.08797151 -692.51397419 2564.50855255 C-693.69067602 2566.30448242 -694.86726524 2568.10048603 -696.0438509 2569.896492 C-702.40507211 2579.60585761 -708.77351623 2589.31047564 -715.1431551 2599.01432037 C-721.37033773 2608.50128706 -727.59293473 2617.99123909 -733.8106966 2627.48438263 C-740.47193502 2637.65461652 -747.13929322 2647.82081388 -753.8106966 2657.98438263 C-760.52323742 2668.21079558 -767.23251557 2678.43933181 -773.9356966 2688.67188263 C-774.32469135 2689.26568726 -774.7136861 2689.85949188 -775.11446857 2690.47129059 C-777.84672333 2694.64220419 -780.57873922 2698.81327424 -783.3106966 2702.98438263 C-786.43552877 2707.75532591 -789.56047309 2712.52619569 -792.6856966 2717.29688263 C-793.07453022 2717.89044556 -793.46336384 2718.48400848 -793.86398029 2719.09555817 C-800.61749388 2729.40444309 -807.3784569 2739.70842849 -814.14114094 2750.01129913 C-820.41008337 2759.56214955 -826.67538089 2769.11537531 -832.9356966 2778.67188263 C-833.32469135 2779.26568726 -833.7136861 2779.85949188 -834.11446857 2780.47129059 C-836.84672333 2784.64220419 -839.57873922 2788.81327424 -842.3106966 2792.98438263 C-845.43552877 2797.75532591 -848.56047309 2802.52619569 -851.6856966 2807.29688263 C-852.07453022 2807.89044556 -852.46336384 2808.48400848 -852.86398029 2809.09555817 C-859.61749388 2819.40444309 -866.3784569 2829.70842849 -873.14114094 2840.01129913 C-879.41008337 2849.56214955 -885.67538089 2859.11537531 -891.9356966 2868.67188263 C-892.32469135 2869.26568726 -892.7136861 2869.85949188 -893.11446857 2870.47129059 C-895.84672333 2874.64220419 -898.57873922 2878.81327424 -901.3106966 2882.98438263 C-904.43552877 2887.75532591 -907.56047309 2892.52619569 -910.6856966 2897.29688263 C-911.07453022 2897.89044556 -911.46336384 2898.48400848 -911.86398029 2899.09555817 C-918.61749388 2909.40444309 -925.3784569 2919.70842849 -932.14114094 2930.01129913 C-938.41008337 2939.56214955 -944.67538089 2949.11537531 -950.9356966 2958.67188263 C-951.32469135 2959.26568726 -951.7136861 2959.85949188 -952.11446857 2960.47129059 C-954.84672333 2964.64220419 -957.57873922 2968.81327424 -960.3106966 2972.98438263 C-963.43552877 2977.75532591 -966.56047309 2982.52619569 -969.6856966 2987.29688263 C-970.07453022 2987.89044556 -970.46336384 2988.48400848 -970.86398029 2989.09555817 C-977.61815708 2999.40545543 -984.37969677 3009.71051025 -991.1431551 3020.01432037 C-997.37033773 3029.50128706 -1003.59293473 3038.99123909 -1009.8106966 3048.48438263 C-1016.47193502 3058.65461652 -1023.13929322 3068.82081388 -1029.8106966 3078.98438263 C-1036.52323742 3089.21079558 -1043.23251557 3099.43933181 -1049.9356966 3109.67188263 C-1050.32469135 3110.26568726 -1050.7136861 3110.85949188 -1051.11446857 3111.47129059 C-1053.84672333 3115.64220419 -1056.57873922 3119.81327424 -1059.3106966 3123.98438263 C-1062.43552877 3128.75532591 -1065.56047309 3133.52619569 -1068.6856966 3138.29688263 C-1069.07453022 3138.89044556 -1069.46336384 3139.48400848 -1069.86398029 3140.09555817 C-1076.61749388 3150.40444309 -1083.3784569 3160.70842849 -1090.14114094 3171.01129913 C-1096.41008337 3180.56214955 -1102.67538089 3190.11537531 -1108.9356966 3199.67188263 C-1109.32469135 3200.26568726 -1109.7136861 3200.85949188 -1110.11446857 3201.47129059 C-1112.84672333 3205.64220419 -1115.57873922 3209.81327424 -1118.3106966 3213.98438263 C-1121.43552877 3218.75532591 -1124.56047309 3223.52619569 -1127.6856966 3228.29688263 C-1128.07453022 3228.89044556 -1128.46336384 3229.48400848 -1128.86398029 3230.09555817 C-1135.61749388 3240.40444309 -1142.3784569 3250.70842849 -1149.14114094 3261.01129913 C-1155.41008337 3270.56214955 -1161.67538089 3280.11537531 -1167.9356966 3289.67188263 C-1168.32469135 3290.26568726 -1168.7136861 3290.85949188 -1169.11446857 3291.47129059 C-1171.84672333 3295.64220419 -1174.57873922 3299.81327424 -1177.3106966 3303.98438263 C-1180.43552877 3308.75532591 -1183.56047309 3313.52619569 -1186.6856966 3318.29688263 C-1187.07453022 3318.89044556 -1187.46336384 3319.48400848 -1187.86398029 3320.09555817 C-1194.61749388 3330.40444309 -1201.3784569 3340.70842849 -1208.14114094 3351.01129913 C-1214.41008337 3360.56214955 -1220.67538089 3370.11537531 -1226.9356966 3379.67188263 C-1227.32469135 3380.26568726 -1227.7136861 3380.85949188 -1228.11446857 3381.47129059 C-1230.84672333 3385.64220419 -1233.57873922 3389.81327424 -1236.3106966 3393.98438263 C-1239.43552877 3398.75532591 -1242.56047309 3403.52619569 -1245.6856966 3408.29688263 C-1246.07453022 3408.89044556 -1246.46336384 3409.48400848 -1246.86398029 3410.09555817 C-1253.61177923 3420.39571997 -1260.36681953 3430.69111946 -1267.12402058 3440.98511505 C-1274.57187529 3452.33138158 -1282.01221636 3463.68255329 -1289.44741535 3475.037117 C-1289.82843906 3475.61890213 -1290.20946278 3476.20068726 -1290.60203266 3476.80010223 C-1291.62570786 3478.36317229 -1292.64923797 3479.92633736 -1293.67275715 3481.48950958 C-1294.87832362 3483.3258017 -1296.0922033 3485.15664268 -1297.3106966 3486.98438263 C-1300.20387314 3487.35839612 -1300.20387314 3487.35839612 -1304.00318301 3487.35697812 C-1304.70363864 3487.36081238 -1305.40409427 3487.36464664 -1306.12577583 3487.36859708 C-1308.50146833 3487.37787374 -1310.87657607 3487.36554472 -1313.25224972 3487.35352612 C-1314.96853795 3487.35574279 -1316.68482491 3487.35927615 -1318.40110803 3487.36401561 C-1323.15718426 3487.37327744 -1327.91307003 3487.36365242 -1332.66913216 3487.35118121 C-1337.82820816 3487.34092507 -1342.98726381 3487.34798208 -1348.14634359 3487.35291368 C-1357.20138319 3487.35915145 -1366.25636383 3487.35417549 -1375.3113966 3487.34199905 C-1388.77602839 3487.32394307 -1402.24062275 3487.32298706 -1415.70526444 3487.32562502 C-1438.35154216 3487.32957302 -1460.99779094 3487.31954041 -1483.64405918 3487.3015728 C-1506.07716337 3487.28381677 -1528.51025678 3487.27224981 -1550.94336796 3487.26901436 C-1551.98767111 3487.26885951 -1551.98767111 3487.26885951 -1553.0530713 3487.26870152 C-1559.41162942 3487.26776195 -1565.77018755 3487.26689887 -1572.12874569 3487.2661276 C-1587.93673796 3487.2642092 -1603.74472998 3487.26133109 -1619.55272198 3487.25780201 C-1620.63261778 3487.25756208 -1620.63261778 3487.25756208 -1621.73432966 3487.25731731 C-1656.77085708 3487.24944918 -1691.80737738 3487.23052504 -1726.84389973 3487.21070099 C-1739.00521559 3487.20382612 -1751.16653148 3487.19700009 -1763.32784748 3487.19037628 C-1764.0820742 3487.18996543 -1764.83630091 3487.18955459 -1765.61338299 3487.18913129 C-1800.66316059 3487.17010566 -1835.71293941 3487.15892441 -1870.76272081 3487.1497719 C-1873.03765318 3487.1491777 -1875.31258554 3487.14858013 -1877.5875179 3487.14798186 C-1892.66337556 3487.14402258 -1907.73923324 3487.14019862 -1922.81509095 3487.13646528 C-1952.81334488 3487.12903541 -1982.81159857 3487.12081035 -2012.80985213 3487.11203914 C-2014.23850786 3487.11162142 -2015.66716359 3487.11120426 -2017.09581933 3487.11078765 C-2103.40256512 3487.08561382 -2189.70930307 3487.04374859 -2302.3106966 3486.98438263 C-2301.19279183 3485.05903466 -2300.0737726 3483.13433374 -2298.95428181 3481.20990753 C-2298.33124731 3480.13802059 -2297.70821281 3479.06613365 -2297.06629848 3477.96176529 C-2295.1350588 3474.68651274 -2293.11537359 3471.52735747 -2290.9903841 3468.37500763 C-2290.61383183 3467.81369141 -2290.23727955 3467.25237518 -2289.8493166 3466.67404938 C-2289.04693969 3465.47849049 -2288.24304232 3464.28395073 -2287.43768024 3463.0904007 C-2285.22700553 3459.81315963 -2283.02938393 3456.52717181 -2280.83022785 3453.24219513 C-2280.37427738 3452.56168091 -2279.91832691 3451.88116669 -2279.44855976 3451.18003082 C-2274.54410616 3443.85330273 -2269.70427464 3436.4846218 -2264.8731966 3429.10938263 C-2264.43956806 3428.44765045 -2264.00593952 3427.78591827 -2263.55917072 3427.10413361 C-2261.35607045 3423.74204868 -2259.15370259 3420.37948508 -2256.95180988 3417.01660919 C-2253.01319809 3411.00218108 -2249.06742594 3404.99245214 -2245.12218952 3398.98236847 C-2242.93473164 3395.64989918 -2240.74773761 3392.31712551 -2238.5606966 3388.98438263 C-2237.68569882 3387.65104784 -2236.81069882 3386.3177145 -2235.9356966 3384.98438263 C-2235.5025716 3384.32438263 -2235.0694466 3383.66438263 -2234.6231966 3382.98438263 C-2147.99811649 3250.98426056 -2147.99811649 3250.98426056 -1494.37316608 2254.98433685 C-1493.49826692 2253.65115669 -1492.62336865 2252.31797595 -1491.74847126 2250.98479462 C-1489.55943575 2247.64911298 -1487.37038475 2244.31344151 -1485.18130207 2240.97779083 C-1481.2621116 2235.00582755 -1477.3430229 2229.03379764 -1473.42452717 2223.06137848 C-1463.40738405 2207.79366044 -1453.38475656 2192.52956711 -1443.35525227 2177.26996613 C-1433.86449051 2162.82980679 -1424.38263424 2148.38381708 -1414.90347004 2133.93604279 C-1410.97785325 2127.95285496 -1407.05149948 2121.97015077 -1403.12521076 2115.98740387 C-1400.93701009 2112.65308267 -1398.74885565 2109.31873114 -1396.5606966 2105.98438263 C-1395.68569682 2104.65104915 -1394.81069682 2103.31771582 -1393.9356966 2101.98438263 C-1393.5025716 2101.32438263 -1393.0694466 2100.66438263 -1392.6231966 2099.98438263 C-1349.3106966 2033.98438263 -1305.9981966 1967.98438263 -1178.6856966 1773.98438263 C-1178.25262196 1773.32445816 -1177.81954731 1772.66453369 -1177.37334919 1771.98461151 C-1176.49784501 1770.65051232 -1175.62233638 1769.31641605 -1174.74682331 1767.98232269 C-1172.56700093 1764.6607308 -1170.38725444 1761.33908916 -1168.20766926 1758.01734161 C-1164.17863237 1751.87714904 -1160.14889255 1745.73742166 -1156.11654377 1739.59940338 C-1144.31042865 1721.64563401 -1144.31042865 1721.64563401 -1132.61098957 1703.62232208 C-1125.60438885 1692.76734794 -1118.47868783 1681.98915067 -1111.38564777 1671.19055939 C-1106.8549788 1664.29222213 -1102.33227888 1657.38867779 -1097.8106966 1650.48438263 C-1090.70596544 1639.63667478 -1083.59345777 1628.79409095 -1076.47768879 1617.95362091 C-1070.25069038 1608.46692817 -1064.02827761 1598.97725003 -1057.8106966 1589.48438263 C-1050.70580088 1578.63678242 -1043.5934579 1567.79409115 -1036.47768879 1556.95362091 C-1030.25069038 1547.46692817 -1024.02827761 1537.97725003 -1017.8106966 1528.48438263 C-1010.70580088 1517.63678242 -1003.5934579 1506.79409115 -996.47768879 1495.95362091 C-990.25069035 1486.46692813 -984.02831352 1476.97722653 -977.8106966 1467.48438263 C-971.19047475 1457.37707738 -964.56530099 1447.27303627 -957.9356966 1437.17188263 C-957.49969135 1436.50756226 -957.0636861 1435.84324188 -956.61446857 1435.15879059 C-953.06899081 1429.75681606 -949.52322321 1424.35503179 -945.97744465 1418.9532547 C-942.88006049 1414.23455249 -939.7827899 1409.51577576 -936.6856966 1404.79688263 C-936.24953022 1404.13232056 -935.81336384 1403.46775848 -935.36398029 1402.78305817 C-928.78538833 1392.75924045 -922.21251367 1382.73169134 -915.6431551 1372.70182037 C-908.92730485 1362.44849745 -902.20368327 1352.20029162 -895.47768879 1341.95362091 C-889.25069038 1332.46692817 -883.02827761 1322.97725003 -876.8106966 1313.48438263 C-869.70580088 1302.63678242 -862.5934579 1291.79409115 -855.47768879 1280.95362091 C-849.25069038 1271.46692817 -843.02827761 1261.97725003 -836.8106966 1252.48438263 C-829.70580088 1241.63678242 -822.5934579 1230.79409115 -815.47768879 1219.95362091 C-809.25069035 1210.46692813 -803.02831352 1200.97722653 -796.8106966 1191.48438263 C-790.19047475 1181.37707738 -783.56530099 1171.27303627 -776.9356966 1161.17188263 C-776.49969135 1160.50756226 -776.0636861 1159.84324188 -775.61446857 1159.15879059 C-772.06899081 1153.75681606 -768.52322321 1148.35503179 -764.97744465 1142.9532547 C-761.88006049 1138.23455249 -758.7827899 1133.51577576 -755.6856966 1128.79688263 C-755.24953022 1128.13232056 -754.81336384 1127.46775848 -754.36398029 1126.78305817 C-747.78538833 1116.75924045 -741.21251367 1106.73169134 -734.6431551 1096.70182037 C-727.92730485 1086.44849745 -721.20368327 1076.20029162 -714.47768879 1065.95362091 C-708.25069038 1056.46692817 -702.02827761 1046.97725003 -695.8106966 1037.48438263 C-688.70580088 1026.63678242 -681.5934579 1015.79409115 -674.47768879 1004.95362091 C-668.25069038 995.46692817 -662.02827761 985.97725003 -655.8106966 976.48438263 C-648.70580088 965.63678242 -641.5934579 954.79409115 -634.47768879 943.95362091 C-628.25069035 934.46692813 -622.02831352 924.97722653 -615.8106966 915.48438263 C-609.19047475 905.37707738 -602.56530099 895.27303627 -595.9356966 885.17188263 C-595.49969135 884.50756226 -595.0636861 883.84324188 -594.61446857 883.15879059 C-591.06899081 877.75681606 -587.52322321 872.35503179 -583.97744465 866.9532547 C-580.88006049 862.23455249 -577.7827899 857.51577576 -574.6856966 852.79688263 C-574.24953022 852.13232056 -573.81336384 851.46775848 -573.36398029 850.78305817 C-566.78538833 840.75924045 -560.21251367 830.73169134 -553.6431551 820.70182037 C-546.92730485 810.44849745 -540.20368327 800.20029162 -533.47768879 789.95362091 C-527.25069038 780.46692817 -521.02827761 770.97725003 -514.8106966 761.48438263 C-507.70580088 750.63678242 -500.5934579 739.79409115 -493.47768879 728.95362091 C-487.25069038 719.46692817 -481.02827761 709.97725003 -474.8106966 700.48438263 C-467.70580088 689.63678242 -460.5934579 678.79409115 -453.47768879 667.95362091 C-447.25069038 658.46692817 -441.02827761 648.97725003 -434.8106966 639.48438263 C-427.70580088 628.63678242 -420.5934579 617.79409115 -413.47768879 606.95362091 C-407.25069035 597.46692813 -401.02831352 587.97722653 -394.8106966 578.48438263 C-388.19047475 568.37707738 -381.56530099 558.27303627 -374.9356966 548.17188263 C-374.49969135 547.50756226 -374.0636861 546.84324188 -373.61446857 546.15879059 C-370.06899081 540.75681606 -366.52322321 535.35503179 -362.97744465 529.9532547 C-359.88006049 525.23455249 -356.7827899 520.51577576 -353.6856966 515.79688263 C-353.24953022 515.13232056 -352.81336384 514.46775848 -352.36398029 513.78305817 C-345.78538833 503.75924045 -339.21251367 493.73169134 -332.6431551 483.70182037 C-325.92730485 473.44849745 -319.20368327 463.20029162 -312.47768879 452.95362091 C-306.25069038 443.46692817 -300.02827761 433.97725003 -293.8106966 424.48438263 C-286.70580088 413.63678242 -279.5934579 402.79409115 -272.47768879 391.95362091 C-266.25069035 382.46692813 -260.02831352 372.97722653 -253.8106966 363.48438263 C-247.19047475 353.37707738 -240.56530099 343.27303627 -233.9356966 333.17188263 C-233.49969135 332.50756226 -233.0636861 331.84324188 -232.61446857 331.15879059 C-229.06899081 325.75681606 -225.52322321 320.35503179 -221.97744465 314.9532547 C-218.88006049 310.23455249 -215.7827899 305.51577576 -212.6856966 300.79688263 C-212.03144703 299.80003952 -212.03144703 299.80003952 -211.36398029 298.78305817 C-204.78538833 288.75924045 -198.21251367 278.73169134 -191.6431551 268.70182037 C-184.92730485 258.44849745 -178.20368327 248.20029162 -171.47768879 237.95362091 C-165.25069038 228.46692817 -159.02827761 218.97725003 -152.8106966 209.48438263 C-145.70580088 198.63678242 -138.5934579 187.79409115 -131.47768879 176.95362091 C-125.25069035 167.46692813 -119.02831352 157.97722653 -112.8106966 148.48438263 C-106.19047475 138.37707738 -99.56530099 128.27303627 -92.9356966 118.17188263 C-92.49969135 117.50756226 -92.0636861 116.84324188 -91.61446857 116.15879059 C-88.06899081 110.75681606 -84.52322321 105.35503179 -80.97744465 99.9532547 C-77.88006049 95.23455249 -74.7827899 90.51577576 -71.6856966 85.79688263 C-71.24953022 85.13232056 -70.81336384 84.46775848 -70.36398029 83.78305817 C-63.40536055 73.18019113 -56.45275235 62.57339895 -49.50503254 51.96338654 C-45.21894105 45.41875042 -40.92767762 38.87754901 -36.6310091 32.33985138 C-35.67201254 30.88022397 -34.71302809 29.4205886 -33.75405598 27.96094513 C-31.92037812 25.16994945 -30.08557515 22.37969802 -28.25014973 19.58985138 C-27.40830716 18.3086314 -26.56650814 17.02738281 -25.7247591 15.74610138 C-25.35158558 15.17957352 -24.97841206 14.61304565 -24.59393024 14.02935028 C-24.23443287 13.48172531 -23.87493549 12.93410034 -23.50454426 12.36988068 C-22.97791158 11.60902285 -22.97791158 11.60902285 -22.44063986 10.83279416 C-21.24373358 9.0150867 -21.24373358 9.0150867 -20.57612659 6.93837479 C-16.90524397 -1.80755275 -8.09110401 -0.10971004 0 0 Z " fill="#191919" transform="translate(3128.3106966018677,756.0156173706055)"/>
<path d="M0 0 C87.70303026 -0.3935091 175.40624483 -0.77667345 286.47729492 -1.05857849 C287.90473692 -1.06206475 289.33217892 -1.06555104 290.75962092 -1.06903736 C320.72310691 -1.14210713 350.6866028 -1.21002473 380.65011378 -1.27199195 C395.70215172 -1.30312642 410.75418741 -1.33525073 425.80622123 -1.36831104 C428.07674001 -1.37329226 430.34725885 -1.37824522 432.61777769 -1.383197 C467.5737168 -1.45968161 502.52943824 -1.55737304 537.48510742 -1.71661377 C538.2364793 -1.72003624 538.98785118 -1.72345871 539.76199191 -1.72698489 C551.87605543 -1.78229303 563.99011055 -1.8393837 576.10416465 -1.89671101 C611.00354014 -2.06183804 645.90274786 -2.21374712 680.80247498 -2.27849483 C681.5204158 -2.27983321 682.23835663 -2.28117159 682.97805323 -2.28255052 C698.74000003 -2.31169712 714.50194891 -2.33406731 730.26391435 -2.35002457 C736.60635356 -2.35656496 742.94879154 -2.36408048 749.29122925 -2.37193108 C750.33244636 -2.37318459 750.33244636 -2.37318459 751.39469816 -2.37446344 C773.7469113 -2.40185806 796.09787913 -2.50857507 818.4495899 -2.65705521 C841.599441 -2.81046309 864.74796351 -2.87533408 887.89844835 -2.83753444 C901.24534266 -2.8185081 914.5877273 -2.86928758 927.93380764 -3.01993858 C936.85062719 -3.11372066 945.76449591 -3.11658198 954.68151959 -3.04579534 C959.76389896 -3.00804529 964.83776176 -3.00955316 969.91922486 -3.12207956 C999.23141152 -3.73417595 999.23141152 -3.73417595 1007.13602614 2.45575257 C1012.48339139 8.05544169 1015.72985208 14.90751342 1018.67678869 21.99943114 C1020.56553586 26.28243259 1023.09816362 29.9582837 1025.8125 33.75 C1026.77748916 35.17956504 1027.73882542 36.61160751 1028.6953125 38.046875 C1029.2099707 38.81580078 1029.72462891 39.58472656 1030.25488281 40.37695312 C1033.92844283 45.89859957 1037.55549491 51.4509706 1041.1875 57 C1041.59473297 57.62209351 1042.00196594 58.24418701 1042.42153931 58.88513184 C1045.28235985 63.25588278 1048.14141553 67.6277864 1051 72 C1051.73648375 73.12630675 1052.47297441 74.25260898 1053.20947266 75.37890625 C1056.00297584 79.65109608 1058.79628364 83.92341347 1061.58911133 88.19604492 C1069.24802434 99.91213104 1076.92039751 111.61938837 1084.59277344 123.32666016 C1088.16719119 128.78095018 1091.74082485 134.23575392 1095.31451416 139.69052124 C1097.29297699 142.71036875 1099.2714911 145.73018267 1101.25 148.75 C1102.04166691 149.95833317 1102.83333358 151.16666651 1103.625 152.375 C1104.2128125 153.2721875 1104.2128125 153.2721875 1104.8125 154.1875 C1144 214 1183.1875 273.8125 1299.56246948 451.43745422 C1300.35423689 452.64594079 1301.14600528 453.85442671 1301.93777466 455.06291199 C1303.91540799 458.08139561 1305.89302434 461.09989037 1307.87060547 464.1184082 C1311.45138642 469.58396351 1315.03229554 475.04943464 1318.61383057 480.51449585 C1327.27985137 493.7379922 1335.94063061 506.96486948 1344.59082031 520.19873047 C1352.24927158 531.91385094 1359.92097901 543.62027567 1367.59277344 555.32666016 C1371.16719119 560.78095018 1374.74082485 566.23575392 1378.31451416 571.69052124 C1380.29297699 574.71036875 1382.2714911 577.73018267 1384.25 580.75 C1385.04166691 581.95833317 1385.83333358 583.16666651 1386.625 584.375 C1387.016875 584.973125 1387.40875 585.57125 1387.8125 586.1875 C1421.45833333 637.54166667 1455.10416667 688.89583333 1488.75 740.25 C1489.14273605 740.84943924 1489.53547211 741.44887848 1489.94010925 742.06648254 C1492.68533325 746.25656128 1495.43055725 750.44664001 1498.17578125 754.63671875 C1498.56373367 755.22885666 1498.9516861 755.82099457 1499.35139465 756.43107605 C1501.91764323 760.34798177 1504.48389181 764.26488749 1507.05014038 768.18179321 C1507.50152374 768.87074677 1507.9529071 769.55970032 1508.41796875 770.26953125 C1508.8616983 770.94680267 1509.30542786 771.6240741 1509.76260376 772.3218689 C1510.20059296 772.99037872 1510.63858215 773.65888855 1511.08984375 774.34765625 C1511.95572917 775.66927083 1512.82161458 776.99088542 1513.6875 778.3125 C1514.10999023 778.95735352 1514.53248047 779.60220703 1514.96777344 780.26660156 C1515.77557882 781.49956767 1516.5833842 782.73253377 1517.39118958 783.96549988 C1517.94585152 784.81208916 1517.94585152 784.81208916 1518.51171875 785.67578125 C1519.67447917 787.45052083 1520.83723958 789.22526042 1522 791 C1517.86453826 799.01787771 1513.13729349 806.53060296 1508.08816528 813.9899292 C1505.85592289 817.28854915 1503.64028655 820.59832008 1501.421875 823.90625 C1500.96732437 824.58311859 1500.51277374 825.25998718 1500.04444885 825.95736694 C1495.49981587 832.73022349 1491.02400835 839.54720378 1486.5625 846.375 C1485.78103215 847.57016693 1484.99953785 848.76531657 1484.21801758 849.96044922 C1483.0304489 851.77673072 1481.84298732 853.59308182 1480.65583801 855.40963745 C1476.3901696 861.93604677 1472.11124717 868.45374123 1467.83200073 874.97125244 C1460.71546468 885.81032691 1453.60452769 896.65305121 1446.5 907.5 C1439.87977814 917.60730525 1433.25460439 927.71134636 1426.625 937.8125 C1426.18899475 938.47682037 1425.7529895 939.14114075 1425.30377197 939.82559204 C1421.75829421 945.22756657 1418.2125266 950.62935084 1414.66674805 956.03112793 C1411.56936389 960.74983014 1408.47209329 965.46860687 1405.375 970.1875 C1404.93883362 970.85206207 1404.50266724 971.51662415 1404.05328369 972.20132446 C1397.47469173 982.22514218 1390.90181706 992.25269129 1384.3324585 1002.28256226 C1377.61660825 1012.53588518 1370.89298667 1022.78409101 1364.16699219 1033.03076172 C1357.93999377 1042.51745446 1351.717581 1052.0071326 1345.5 1061.5 C1338.39510428 1072.34760021 1331.2827613 1083.19029148 1324.16699219 1094.03076172 C1317.93999375 1103.5174545 1311.71761692 1113.0071561 1305.5 1122.5 C1298.87977814 1132.60730525 1292.25460439 1142.71134636 1285.625 1152.8125 C1285.18899475 1153.47682037 1284.7529895 1154.14114075 1284.30377197 1154.82559204 C1280.75829421 1160.22756657 1277.2125266 1165.62935084 1273.66674805 1171.03112793 C1270.56936389 1175.74983014 1267.47209329 1180.46860687 1264.375 1185.1875 C1263.93883362 1185.85206207 1263.50266724 1186.51662415 1263.05328369 1187.20132446 C1256.47469173 1197.22514218 1249.90181706 1207.25269129 1243.3324585 1217.28256226 C1236.61660825 1227.53588518 1229.89298667 1237.78409101 1223.16699219 1248.03076172 C1216.93999377 1257.51745446 1210.717581 1267.0071326 1204.5 1276.5 C1197.39510428 1287.34760021 1190.2827613 1298.19029148 1183.16699219 1309.03076172 C1176.93999377 1318.51745446 1170.717581 1328.0071326 1164.5 1337.5 C1157.39510428 1348.34760021 1150.2827613 1359.19029148 1143.16699219 1370.03076172 C1136.93999375 1379.5174545 1130.71761692 1389.0071561 1124.5 1398.5 C1117.87977814 1408.60730525 1111.25460439 1418.71134636 1104.625 1428.8125 C1104.18899475 1429.47682037 1103.7529895 1430.14114075 1103.30377197 1430.82559204 C1099.75829421 1436.22756657 1096.2125266 1441.62935084 1092.66674805 1447.03112793 C1089.56936389 1451.74983014 1086.47209329 1456.46860687 1083.375 1461.1875 C1082.93883362 1461.85206207 1082.50266724 1462.51662415 1082.05328369 1463.20132446 C1076.25397543 1472.03774558 1070.4584604 1480.87664033 1064.66708374 1489.71826172 C1061.52950851 1494.50826753 1058.39135585 1499.29789508 1055.25311279 1504.08746338 C1054.39553655 1505.3963208 1053.53799423 1506.70520044 1052.68048096 1508.01409912 C1051.30922707 1510.10712406 1049.93785249 1512.20006985 1048.56640625 1514.29296875 C1048.11029968 1514.98903229 1047.65419312 1515.68509583 1047.18426514 1516.4022522 C1043.64011483 1521.80954622 1040.08801626 1527.21158546 1036.53399658 1532.61239624 C1034.04194817 1536.40303637 1031.57071863 1540.20631118 1029.11328125 1544.01953125 C1028.55439209 1544.87909424 1027.99550293 1545.73865723 1027.41967773 1546.62426758 C1026.42515299 1548.15385827 1025.43834071 1549.6885056 1024.46118164 1551.22924805 C1023.38536351 1552.87320637 1022.20350981 1554.44708411 1021 1556 C1020.01 1556 1019.02 1556 1018 1556 C1016.18505859 1553.75048828 1016.18505859 1553.75048828 1014.1484375 1550.5703125 C1013.77743927 1549.99771698 1013.40644104 1549.42512146 1013.02420044 1548.83517456 C1011.7979969 1546.93790424 1010.58672856 1545.03154114 1009.375 1543.125 C1008.51865773 1541.79487724 1007.6612221 1540.4654578 1006.80273438 1539.13671875 C1005.04311053 1536.41089158 1003.28862076 1533.68186782 1001.53808594 1530.95019531 C997.89732626 1525.27484294 994.19731986 1519.63863235 990.5 1514 C989.10128606 1511.86085782 987.70285146 1509.72153295 986.3046875 1507.58203125 C981.74893508 1500.61447145 977.18761514 1493.65056684 972.625 1486.6875 C972.23024475 1486.08505463 971.8354895 1485.48260925 971.42877197 1484.86190796 C968.61935699 1480.57449017 965.80970525 1476.28722756 963 1472 C959.79150454 1467.10427289 956.58311309 1462.20847768 953.375 1457.3125 C952.98008362 1456.70981293 952.58516724 1456.10712585 952.17828369 1455.48617554 C945.9158317 1445.92851373 939.66100311 1436.36588776 933.40917969 1426.80126953 C928.15255437 1418.76021832 922.89026736 1410.72289362 917.625 1402.6875 C917.23024475 1402.08505463 916.8354895 1401.48260925 916.42877197 1400.86190796 C913.61935699 1396.57449017 910.80970525 1392.28722756 908 1388 C904.79150454 1383.10427289 901.58311309 1378.20847768 898.375 1373.3125 C897.98008362 1372.70981293 897.58516724 1372.10712585 897.17828369 1371.48617554 C890.9158317 1361.92851373 884.66100311 1352.36588776 878.40917969 1342.80126953 C873.15255437 1334.76021832 867.89026736 1326.72289362 862.625 1318.6875 C862.23024475 1318.08505463 861.8354895 1317.48260925 861.42877197 1316.86190796 C858.61935699 1312.57449017 855.80970525 1308.28722756 853 1304 C849.79150454 1299.10427289 846.58311309 1294.20847768 843.375 1289.3125 C842.98008362 1288.70981293 842.58516724 1288.10712585 842.17828369 1287.48617554 C835.91727898 1277.93072257 829.66377264 1268.37038699 823.41357422 1258.80786133 C818.11451989 1250.70165052 812.80847726 1242.60004109 807.5 1234.5 C801.49474255 1225.3367636 795.49402443 1216.17059085 789.5 1207 C783.54691997 1197.89238551 777.58841646 1188.78834811 771.625 1179.6875 C771.23024475 1179.08505463 770.8354895 1178.48260925 770.42877197 1177.86190796 C767.61935699 1173.57449017 764.80970525 1169.28722756 762 1165 C758.79150454 1160.10427289 755.58311309 1155.20847768 752.375 1150.3125 C751.98008362 1149.70981293 751.58516724 1149.10712585 751.17828369 1148.48617554 C744.9158317 1138.92851373 738.66100311 1129.36588776 732.40917969 1119.80126953 C727.15255437 1111.76021832 721.89026736 1103.72289362 716.625 1095.6875 C716.23024475 1095.08505463 715.8354895 1094.48260925 715.42877197 1093.86190796 C712.61935699 1089.57449017 709.80970525 1085.28722756 707 1081 C703.79150454 1076.10427289 700.58311309 1071.20847768 697.375 1066.3125 C696.98008362 1065.70981293 696.58516724 1065.10712585 696.17828369 1064.48617554 C689.9158317 1054.92851373 683.66100311 1045.36588776 677.40917969 1035.80126953 C672.15255437 1027.76021832 666.89026736 1019.72289362 661.625 1011.6875 C661.23024475 1011.08505463 660.8354895 1010.48260925 660.42877197 1009.86190796 C657.61935699 1005.57449017 654.80970525 1001.28722756 652 997 C648.79150454 992.10427289 645.58311309 987.20847768 642.375 982.3125 C641.98008362 981.70981293 641.58516724 981.10712585 641.17828369 980.48617554 C634.9158317 970.92851373 628.66100311 961.36588776 622.40917969 951.80126953 C617.15255437 943.76021832 611.89026736 935.72289362 606.625 927.6875 C606.23024475 927.08505463 605.8354895 926.48260925 605.42877197 925.86190796 C602.61935699 921.57449017 599.80970525 917.28722756 597 913 C593.79150454 908.10427289 590.58311309 903.20847768 587.375 898.3125 C586.98008362 897.70981293 586.58516724 897.10712585 586.17828369 896.48617554 C579.91727898 886.93072257 573.66377264 877.37038699 567.41357422 867.80786133 C562.11451989 859.70165052 556.80847726 851.60004109 551.5 843.5 C545.49474255 834.3367636 539.49402443 825.17059085 533.5 816 C527.54691997 806.89238551 521.58841646 797.78834811 515.625 788.6875 C515.23024475 788.08505463 514.8354895 787.48260925 514.42877197 786.86190796 C511.61935699 782.57449017 508.80970525 778.28722756 506 774 C502.79150454 769.10427289 499.58311309 764.20847768 496.375 759.3125 C495.98008362 758.70981293 495.58516724 758.10712585 495.17828369 757.48617554 C488.9158317 747.92851373 482.66100311 738.36588776 476.40917969 728.80126953 C471.15255437 720.76021832 465.89026736 712.72289362 460.625 704.6875 C460.23024475 704.08505463 459.8354895 703.48260925 459.42877197 702.86190796 C456.61935699 698.57449017 453.80970525 694.28722756 451 690 C447.79150454 685.10427289 444.58311309 680.20847768 441.375 675.3125 C440.98008362 674.70981293 440.58516724 674.10712585 440.17828369 673.48617554 C433.9158317 663.92851373 427.66100311 654.36588776 421.40917969 644.80126953 C416.15255437 636.76021832 410.89026736 628.72289362 405.625 620.6875 C405.23024475 620.08505463 404.8354895 619.48260925 404.42877197 618.86190796 C401.61935699 614.57449017 398.80970525 610.28722756 396 606 C392.79150454 601.10427289 389.58311309 596.20847768 386.375 591.3125 C385.98008362 590.70981293 385.58516724 590.10712585 385.17828369 589.48617554 C378.91727898 579.93072257 372.66377264 570.37038699 366.41357422 560.80786133 C361.11451989 552.70165052 355.80847726 544.60004109 350.5 536.5 C344.49474255 527.3367636 338.49402443 518.17059085 332.5 509 C326.54691997 499.89238551 320.58841646 490.78834811 314.625 481.6875 C314.23024475 481.08505463 313.8354895 480.48260925 313.42877197 479.86190796 C310.61935699 475.57449017 307.80970525 471.28722756 305 467 C301.79150454 462.10427289 298.58311309 457.20847768 295.375 452.3125 C294.98008362 451.70981293 294.58516724 451.10712585 294.17828369 450.48617554 C287.9158317 440.92851373 281.66100311 431.36588776 275.40917969 421.80126953 C270.15255437 413.76021832 264.89026736 405.72289362 259.625 397.6875 C259.23024475 397.08505463 258.8354895 396.48260925 258.42877197 395.86190796 C255.61935699 391.57449017 252.80970525 387.28722756 250 383 C246.79150454 378.10427289 243.58311309 373.20847768 240.375 368.3125 C239.98008362 367.70981293 239.58516724 367.10712585 239.17828369 366.48617554 C232.9158317 356.92851373 226.66100311 347.36588776 220.40917969 337.80126953 C215.15255437 329.76021832 209.89026736 321.72289362 204.625 313.6875 C204.23024475 313.08505463 203.8354895 312.48260925 203.42877197 311.86190796 C200.61935699 307.57449017 197.80970525 303.28722756 195 299 C191.79150454 294.10427289 188.58311309 289.20847768 185.375 284.3125 C184.98008362 283.70981293 184.58516724 283.10712585 184.17828369 282.48617554 C177.91727898 272.93072257 171.66377264 263.37038699 165.41357422 253.80786133 C160.11451989 245.70165052 154.80847726 237.60004109 149.5 229.5 C143.49474255 220.3367636 137.49402443 211.17059085 131.5 202 C125.54691997 192.89238551 119.58841646 183.78834811 113.625 174.6875 C113.23024475 174.08505463 112.8354895 173.48260925 112.42877197 172.86190796 C109.61935699 168.57449017 106.80970525 164.28722756 104 160 C100.79150454 155.10427289 97.58311309 150.20847768 94.375 145.3125 C93.98008362 144.70981293 93.58516724 144.10712585 93.17828369 143.48617554 C86.9158317 133.92851373 80.66100311 124.36588776 74.40917969 114.80126953 C69.15255437 106.76021832 63.89026736 98.72289362 58.625 90.6875 C58.23024475 90.08505463 57.8354895 89.48260925 57.42877197 88.86190796 C54.61935699 84.57449017 51.80970525 80.28722756 49 76 C25.90294298 40.75703655 25.90294298 40.75703655 14.97802734 24.02734375 C13.00425625 21.00651413 11.02757537 17.98760197 9.05078125 14.96875 C7.84621057 13.12509382 6.64177578 11.28134883 5.4375 9.4375 C4.88271973 8.59179443 4.32793945 7.74608887 3.75634766 6.87475586 C3.25796387 6.11042236 2.75958008 5.34608887 2.24609375 4.55859375 C1.80966553 3.89142334 1.3732373 3.22425293 0.92358398 2.53686523 C0 1 0 1 0 0 Z " fill="#F21B24" transform="translate(888,757)"/>
</svg>
